<svg xmlns:xlink="http://www.w3.org/1999/xlink" xmlns="http://www.w3.org/2000/svg" viewBox="0 0 180 180"><defs><linearGradient id="a"><stop offset="0"/></linearGradient><linearGradient xlink:href="#a" id="f" gradientUnits="userSpaceOnUse" x1="40.535" y1="67.998" x2="64.094" y2="67.998"/><linearGradient xlink:href="#a" id="i" gradientUnits="userSpaceOnUse" x1="40.535" y1="67.998" x2="64.094" y2="67.998"/><linearGradient xlink:href="#a" id="c" gradientUnits="userSpaceOnUse" x1="40.535" y1="67.998" x2="64.094" y2="67.998"/><path id="b" d="M38.144 47.216h109.897v102.68H38.144z"/><path id="e" d="M38.144 47.216h109.897v102.68H38.144z"/><path id="h" d="M38.144 47.216h109.897v102.68H38.144z"/><filter id="g" x="-.129" y="-.102" width="1.258" height="1.204" color-interpolation-filters="sRGB"><feGaussianBlur stdDeviation=".588"/></filter><filter id="d" x="-.466" y="-.37" width="1.933" height="1.74" color-interpolation-filters="sRGB"><feGaussianBlur stdDeviation="3.917"/></filter></defs><g font-weight="500" font-size="40" font-family="Roboto"><g aria-label="N" transform="matrix(4.59067 0 0 4.06642 -150.142 -185.645)" style="line-height:1.25;-inkscape-font-specification:'Roboto, Medium';white-space:pre;shape-inside:url(#b)" fill="#0f0" stroke="url(#c)" stroke-width="2.245" stroke-linecap="square" paint-order="stroke markers fill" filter="url(#d)"><path d="M63.594 82.217h-4.942L45.977 62.04v20.176h-4.942V53.779h4.942L58.69 74.033V53.78h4.903z"/></g><g aria-label="N" transform="matrix(4.40613 0 0 4.40613 -140.438 -209.487)" style="line-height:1.25;-inkscape-font-specification:'Roboto, Medium';white-space:pre;shape-inside:url(#e)" stroke="url(#f)" stroke-width="2.988" stroke-linecap="square" paint-order="stroke markers fill" filter="url(#g)"><path d="M63.594 82.217h-4.942L45.977 62.04v20.176h-4.942V53.779h4.942L58.69 74.033V53.78h4.903z"/></g><path d="M63.594 82.217h-4.942L45.977 62.04v20.176h-4.942V53.779h4.942L58.69 74.033V53.78h4.903z" aria-label="N" transform="matrix(4.40613 0 0 4.40613 -140.435 -209.426)" style="line-height:1.25;-inkscape-font-specification:'Roboto, Medium';white-space:pre;shape-inside:url(#h)" fill="#0f0" stroke="url(#i)" stroke-width="2.988" stroke-linejoin="round" paint-order="stroke fill markers"/></g></svg>